<?xml version="1.0" encoding="UTF-8" standalone="no"?>
<svg xmlns:svg="http://www.w3.org/2000/svg" xmlns="http://www.w3.org/2000/svg"
     version="1.0" width="800px"  height="140px" viewBox="-10 -30 800 140">
	<defs />
	<rect x="-10" y="-30" width="800" height="140"  style="fill:#ffffff; stroke:none;" />
	<g style="fill:#000000; stroke:none; font-size:30; font-family:monospace;">
		<text x="000" y="0">A=</text>
		<text x="090" y="0">B=</text>
		<text x="180" y="0">C=</text>
		<text x="270" y="0">D=</text>
		<text x="360" y="0">E=</text>
		<text x="450" y="0">F=</text>
		<text x="540" y="0">G=</text>
		<text x="630" y="0">H=</text>
		<text x="720" y="0">I=</text>

		<text x="000" y="50">J=</text>
		<text x="090" y="50">K=</text>
		<text x="180" y="50">L=</text>
		<text x="270" y="50">M=</text>
		<text x="360" y="50">N=</text>
		<text x="450" y="50">O=</text>
		<text x="540" y="50">P=</text>
		<text x="630" y="50">Q=</text>
		<text x="720" y="50">R=</text>

		<text x="000" y="100">S=</text>
		<text x="090" y="100">T=</text>
		<text x="180" y="100">U=</text>
		<text x="270" y="100">V=</text>
		<text x="360" y="100">W=</text>
		<text x="450" y="100">X=</text>
		<text x="540" y="100">Y=</text>
		<text x="630" y="100">Z=</text>
	</g>
	<g transform="translate(40,-20)" style="fill :none; stroke :#000000; stroke-width :4; stroke-linejoin :miter;" >
		<polyline id="pigpenA" transform="translate(000,0)"   points="0,20  20,20  20,0" />
		<polyline id="pigpenB" transform="translate(090,0)"  points="0,0   0,20  20,20  20,0" />
		<polyline id="pigpenC" transform="translate(180,0)" points="0,0   0,20  20,20" />
		<polyline id="pigpenD" transform="translate(270,0)" points="0,20  20,20  20,0 0,0" />
		<polygon  id="pigpenE" transform="translate(360,0)" points="0,0  20,0  20,20 0,20 " />
		<polyline id="pigpenF" transform="translate(450,0)" points="20,0  0,0  0,20 20,20" />
		<polyline id="pigpenG" transform="translate(540,0)" points="0,0  20,0  20,20" />
		<polyline id="pigpenH" transform="translate(630,0)" points="0,20  0,0  20,0 20,20" />
		<polyline id="pigpenI" transform="translate(720,0)" points="0,20  0,0  20,0" />
	</g>
	<g transform="translate(40,30)" style="fill :none; stroke :#000000; stroke-width :4; stroke-linejoin :miter;" >
		<polyline id="pigpenJ" transform="translate(000,0)" points="0,20 20,20 20,0" />
		<polyline id="pigpenK" transform="translate(090,0)" points="0,0   0,20 20,20 20,0" />
		<polyline id="pigpenL" transform="translate(180,0)" points="0,0   0,20 20,20" />
		<polyline id="pigpenM" transform="translate(270,0)" points="0,20 20,20 20,0   0,0" />
		<polygon  id="pigpenN" transform="translate(360,0)" points="0,0  20,0  20,20  0,20 " />
		<polyline id="pigpenO" transform="translate(450,0)" points="20,0  0,0   0,20 20,20" />
		<polyline id="pigpenP" transform="translate(540,0)" points="0,0  20,0  20,20" />
		<polyline id="pigpenQ" transform="translate(630,0)" points="0,20  0,0  20,0  20,20" />
		<polyline id="pigpenR" transform="translate(720,0)" points="0,20  0,0  20,0" />
		<g style="fill:#000000; stroke:none;" transform="translate(10,10)">
			<circle cx="000" cy="0" r="3" />
			<circle cx="090" cy="0" r="3" />
			<circle cx="180" cy="0" r="3" />
			<circle cx="270" cy="0" r="3" />
			<circle cx="360" cy="0" r="3" />
			<circle cx="450" cy="0" r="3" />
			<circle cx="540" cy="0" r="3" />
			<circle cx="630" cy="0" r="3" />
			<circle cx="720" cy="0" r="3" />
		</g>
	</g>
	<g transform="translate(40,80)" style="fill :none; stroke :#000000; stroke-width :4; stroke-linejoin :miter;">
		<polyline id="pigpenS" transform="translate(000,0)" points="0,0  10,20 20,0" />
		<polyline id="pigpenT" transform="translate(090,0)" points="0,0  20,10 0,20" />
		<polyline id="pigpenU" transform="translate(180,0)" points="20,0  0,10 20,20" />
		<polyline id="pigpenV" transform="translate(270,0)" points="0,20 10,0 20,20" />
		<polyline id="pigpenW" transform="translate(360,0)" points="0,0  10,20 20,0" />
		<polyline id="pigpenX" transform="translate(450,0)" points="0,0  20,10 0,20" />
		<polyline id="pigpenY" transform="translate(540,0)" points="20,0  0,10 20,20" />
		<polyline id="pigpenZ" transform="translate(630,0)" points="0,20 10,0 20,20" />
		<g style="fill:#000000; stroke:none;">
			<circle cx="370" cy="5" r="3" />
			<circle cx="455" cy="10" r="3" />
			<circle cx="555" cy="10" r="3" />
			<circle cx="640" cy="15" r="3" />
		</g>
	</g>
</svg>
